<svg width="169" height="101" viewBox="0 0 169 101" fill="none" xmlns="http://www.w3.org/2000/svg">
<path d="M31.232 83.08H69.888V101H6.4V84.36L44.8 29.064H6.4V11.144H69.888V27.784L31.232 83.08Z" fill="white"/>
<rect x="68" y="83" width="101" height="18" fill="white"/>
<path d="M106.052 81.3314C108.897 81.3314 111.203 79.0251 111.203 76.1802C111.203 73.3353 108.897 71.0291 106.052 71.0291C103.207 71.0291 100.901 73.3353 100.901 76.1802C100.901 79.0251 103.207 81.3314 106.052 81.3314Z" fill="white"/>
<path d="M153.379 81.4924C156.224 81.4924 158.53 79.1861 158.53 76.3412C158.53 73.4963 156.224 71.1901 153.379 71.1901C150.534 71.1901 148.228 73.4963 148.228 76.3412C148.228 79.1861 150.534 81.4924 153.379 81.4924Z" fill="white"/>
<path d="M168.671 69.5803C168.51 69.9023 168.349 70.2242 167.866 70.2242H166.095C165.882 70.2242 165.677 70.1394 165.526 69.9885C165.375 69.8375 165.291 69.6328 165.291 69.4194C165.291 69.2059 165.375 69.0012 165.526 68.8502C165.677 68.6993 165.882 68.6145 166.095 68.6145H168.027C167.812 67.9306 167.651 67.2308 167.544 66.5218C167.405 66.7328 167.213 66.9034 166.987 67.0164C166.761 67.1294 166.509 67.181 166.256 67.1657C166.096 67.1855 165.933 67.1711 165.779 67.1236C165.625 67.0762 165.482 66.9967 165.361 66.8903C165.239 66.784 165.141 66.6531 165.074 66.5064C165.006 66.3597 164.97 66.2004 164.969 66.0389V65.395C164.998 65.0781 165.149 64.7847 165.388 64.5751C165.628 64.3655 165.938 64.2557 166.256 64.2682C166.489 64.2387 166.724 64.2855 166.928 64.4017C167.131 64.5179 167.291 64.697 167.383 64.9121C167.362 64.1574 167.416 63.4025 167.544 62.6584L158.369 61.3707C158.369 61.3707 151.93 53 134.545 53C124.886 53 116.515 57.0244 110.237 60.5658C108.983 61.2745 107.694 61.9192 106.374 62.4975C104.599 63.2307 102.769 63.8228 100.901 64.2682C100.901 64.2682 93.4962 65.556 91.8865 68.9364C91.8865 68.9576 91.8823 68.9785 91.8742 68.998C91.8661 69.0175 91.8543 69.0353 91.8393 69.0502C91.8244 69.0652 91.8066 69.0771 91.7871 69.0852C91.7676 69.0933 91.7466 69.0974 91.7255 69.0974H94.1401C94.3536 69.0974 94.5583 69.1822 94.7092 69.3331C94.8602 69.4841 94.945 69.6888 94.945 69.9023C94.945 70.1157 94.8602 70.3204 94.7092 70.4714C94.5583 70.6223 94.3536 70.7071 94.1401 70.7071H91.7255C91.5645 70.7071 91.4036 70.5462 91.2426 70.5462C90.7659 72.2807 90.9975 74.1335 91.8865 75.6973L97.3596 76.3412H99.2913L99.7742 76.1802C99.7742 74.5579 100.419 73.0021 101.566 71.8549C102.713 70.7077 104.269 70.0632 105.891 70.0632C107.514 70.0632 109.069 70.7077 110.217 71.8549C111.364 73.0021 112.008 74.5579 112.008 76.1802L147.262 75.6973C147.388 74.1748 148.078 72.7542 149.195 71.7123C150.312 70.6704 151.778 70.0821 153.305 70.062C154.833 70.0419 156.313 70.5915 157.458 71.6036C158.602 72.6157 159.329 74.0177 159.496 75.5364C162.071 75.3754 168.349 74.7315 168.671 71.834L168.993 69.9023C168.993 69.7413 168.832 69.7413 168.671 69.5803ZM132.291 62.1755V62.3365H112.974C112.974 62.3365 123.115 56.2195 133.74 56.0585L132.291 62.1755ZM150.32 62.3365H133.74L135.188 56.2195V56.0585C144.364 56.0585 147.583 57.5073 150.803 59.5999L150.32 62.3365Z" fill="white"/>
<path d="M113.684 9.45943C104.004 9.53223 94.7491 13.4475 87.9557 20.3438C81.1622 27.2402 77.3866 36.5527 77.4594 46.2329L93.7716 46.1102C93.7313 40.7563 95.8195 35.6057 99.5768 31.7915C103.334 27.9773 108.453 25.8119 113.807 25.7716L113.684 9.45943Z" fill="white"/>
<circle cx="86" cy="57" r="7" fill="white"/>
</svg>
